# xmcd CD database file
#
# Track frame offsets:
#	150
#	14020
#	35848
#	52819
#	66953
#	82196
#	96755
#	114762
#	132744
#	144206
#	157874
#	175874
#	196783
#	211932
#	227925
#	244377
#
# Disc length: 3464 seconds
#
# Revision: 4
# Processed by: cddbd v1.5.2PL0 Copyright (c) Steve Scherf et al.
# Submitted via: CDex 1.70beta2
#
DISCID=dd0d8610
DTITLE=Various Artist - 022 - Deutsche Trucker and  Western - Hitparade
DYEAR=1995
DGENRE=Country
TTITLE0=Truck Stop - Tausend Meilen
TTITLE1=Johnny Hill - Ruf Teddybär eins-vier
TTITLE2=Timmeltruck - Amerika
TTITLE3=Tom Astor - Mein Laster wartet schon
TTITLE4=Fred Rai - Es Hängt Ein Pferdehalfter an der Wand
TTITLE5=Mike Frajara - Dusty Boots
TTITLE6=Tina West and Her Wagoners - Wo ein Wille ist
TTITLE7=Johnny Hill - Träume, die hat jeder
TTITLE8=Armin Barthel - Hallo, Guten Morgen Deutschland
TTITLE9=Freddy Quinn - It's Country Time
TTITLE10=Timmeltruck - König der Autobahn
TTITLE11=Peter Orloff - Die Straße
TTITLE12=Gus Backus - Hey Cowboy
TTITLE13=Fred Rai - Freiheit auf Rädern
TTITLE14=Mike Frajara - Slow Truck
TTITLE15=Frank Spelane and Alamo - Vorüber, vergessen, vorbei
EXTD=YEAR: 1995
EXTT0=
EXTT1=
EXTT2=
EXTT3=
EXTT4=
EXTT5=
EXTT6=
EXTT7=
EXTT8=
EXTT9=
EXTT10=
EXTT11=
EXTT12=
EXTT13=
EXTT14=
EXTT15=
PLAYORDER=
